<svg width="37" height="37" viewBox="0 0 37 37" fill="none" xmlns="http://www.w3.org/2000/svg">
<g clip-path="url(#clip0_66_59)">
<path d="M29.6766 5.27539C28.4715 5.27539 27.3558 6.05482 26.4985 7.43827C25.6415 8.82163 25.0836 10.7946 25.0836 12.9923C25.0836 15.1901 25.6415 17.1626 26.4985 18.546C27.3557 19.9295 28.4715 20.7089 29.6766 20.7089C30.8817 20.7089 31.9974 19.9295 32.8546 18.5461C33.7117 17.1627 34.2697 15.1901 34.2697 12.9923C34.2697 10.7946 33.7117 8.82173 32.8546 7.43827C31.9974 6.05482 30.8817 5.27539 29.6766 5.27539ZM9.6337 14.9803C8.79758 14.9803 8.0159 15.5181 7.40059 16.5114C6.78527 17.5044 6.37673 18.9381 6.37673 20.5404C6.37673 22.1427 6.78527 23.5764 7.40059 24.5695C8.0159 25.5627 8.79758 26.1005 9.6337 26.1005C10.4698 26.1005 11.2517 25.5627 11.867 24.5695C12.4823 23.5764 12.8905 22.1426 12.8905 20.5404C12.8905 18.9381 12.4823 17.5044 11.867 16.5114C11.2517 15.5181 10.4698 14.9803 9.6337 14.9803ZM25.4012 19.7998C25.2655 19.9272 25.1333 20.0606 25.0056 20.2016C23.8601 21.4676 23.0167 23.3407 22.3725 25.6806C21.154 30.1049 20.6685 36.1241 19.8618 42.2754H39.4913C38.6846 36.1241 38.1989 30.1048 36.9806 25.6806C36.3364 23.3407 35.4931 21.4676 34.3477 20.2016C34.2199 20.0604 34.0878 19.9271 33.9521 19.7998C32.8798 21.4469 31.368 22.5287 29.6767 22.5287C27.9853 22.5287 26.4736 21.447 25.4013 19.7998H25.4012ZM6.39928 25.9649C6.35143 26.0139 6.30382 26.0637 6.25714 26.1153C5.43179 27.0275 4.81113 28.3953 4.33386 30.1287C3.44863 33.3434 3.07742 37.7454 2.49133 42.2754H16.7759C16.1899 37.7454 15.8187 33.3434 14.9335 30.1287C14.4563 28.3953 13.8357 27.0275 13.0103 26.1153C12.9636 26.0637 12.9162 26.0139 12.8682 25.9649C12.0433 27.1441 10.9049 27.9202 9.6337 27.9202C8.36248 27.9202 7.22421 27.144 6.39928 25.9649Z" fill="#DCDCDC"/>
</g>
<defs>
<clipPath id="clip0_66_59">
<rect width="37" height="37" fill="white"/>
</clipPath>
</defs>
</svg>
