<svg width="26" height="26" viewBox="0 0 26 26" fill="none" xmlns="http://www.w3.org/2000/svg">
<path d="M14.6477 22.3452L13.5637 23.4292C13.1047 23.8882 12.3625 23.8882 11.9084 23.4292L2.41626 13.9419C1.95728 13.4829 1.95728 12.7407 2.41626 12.2866L11.9084 2.79443C12.3674 2.33545 13.1096 2.33545 13.5637 2.79443L14.6477 3.87842C15.1116 4.34229 15.1018 5.09912 14.6282 5.55322L8.74439 11.1587H22.7776C23.427 11.1587 23.9495 11.6812 23.9495 12.3306V13.8931C23.9495 14.5425 23.427 15.0649 22.7776 15.0649H8.74439L14.6282 20.6704C15.1067 21.1245 15.1165 21.8813 14.6477 22.3452Z" fill="white"/>
</svg>
