<svg width="37" height="37" viewBox="0 0 37 37" fill="none" xmlns="http://www.w3.org/2000/svg">
<path d="M33.1967 10.9638C33.2201 11.2925 33.2201 11.6212 33.2201 11.9499C33.2201 21.9746 25.5901 33.5254 11.6447 33.5254C7.34833 33.5254 3.35724 32.281 0 30.1212C0.610428 30.1916 1.1973 30.2151 1.83121 30.2151C5.3762 30.2151 8.63957 29.0178 11.2455 26.9753C7.91179 26.9048 5.118 24.7215 4.15542 21.7164C4.625 21.7868 5.09451 21.8338 5.58758 21.8338C6.26839 21.8338 6.94928 21.7398 7.58312 21.5755C4.10852 20.8712 1.50247 17.8192 1.50247 14.1333V14.0394C2.51195 14.6029 3.68591 14.955 4.93011 15.0019C2.88759 13.6402 1.54945 11.316 1.54945 8.68654C1.54945 7.27794 1.92501 5.9867 2.58241 4.85979C6.31529 9.4613 11.9264 12.4663 18.2182 12.7951C18.1008 12.2316 18.0303 11.6447 18.0303 11.0578C18.0303 6.87882 21.4111 3.47467 25.6135 3.47467C27.7968 3.47467 29.7689 4.39028 31.1541 5.86934C32.8679 5.54067 34.5112 4.90676 35.9669 4.03813C35.4034 5.79895 34.2061 7.27801 32.6331 8.21703C34.1592 8.05277 35.6382 7.63009 36.9999 7.04322C35.967 8.54569 34.6757 9.88384 33.1967 10.9638Z" fill="#0094E8"/>
</svg>
