<svg width="26" height="26" viewBox="0 0 26 26" fill="none" xmlns="http://www.w3.org/2000/svg">
<g clip-path="url(#clip0_63_48)">
<path d="M13.3706 0.440186C6.5332 0.440186 1.23438 5.43726 1.23438 12.1868C1.23438 15.717 2.68506 18.7678 5.04639 20.8752C5.4541 21.2419 5.37012 21.4543 5.43945 23.7185C5.44491 23.8771 5.48909 24.032 5.56814 24.1696C5.64719 24.3071 5.7587 24.4233 5.89295 24.5079C6.02721 24.5925 6.18012 24.643 6.33836 24.6549C6.4966 24.6669 6.65535 24.6399 6.80078 24.5764C9.38428 23.4387 9.41748 23.3489 9.85547 23.468C17.3403 25.5281 25.4531 20.738 25.4531 12.1868C25.4531 5.43726 20.2085 0.440186 13.3706 0.440186ZM20.6577 9.47974L17.0933 15.1228C16.9587 15.335 16.7817 15.5171 16.5734 15.6577C16.3651 15.7983 16.1301 15.8944 15.883 15.9399C15.6358 15.9854 15.382 15.9794 15.1373 15.9222C14.8926 15.8651 14.6623 15.758 14.4609 15.6077L11.625 13.4851C11.4982 13.39 11.344 13.3386 11.1855 13.3386C11.0271 13.3386 10.8729 13.39 10.7461 13.4851L6.91943 16.3875C6.40869 16.7747 5.73975 16.1628 6.08398 15.6223L9.64844 9.97925C9.78299 9.767 9.95995 9.58483 10.1682 9.44418C10.3765 9.30354 10.6116 9.20744 10.8587 9.16191C11.1059 9.11639 11.3597 9.12242 11.6045 9.17963C11.8492 9.23685 12.0794 9.344 12.2808 9.49438L15.1157 11.6165C15.2425 11.7115 15.3967 11.7629 15.5552 11.7629C15.7137 11.7629 15.8678 11.7115 15.9946 11.6165L19.8232 8.71704C20.333 8.32739 21.002 8.93872 20.6577 9.47974Z" fill="#318C5B"/>
</g>
<defs>
<clipPath id="clip0_63_48">
<rect width="25" height="25" fill="white" transform="translate(0.84375 0.0495605)"/>
</clipPath>
</defs>
</svg>
