<svg width="36" height="36" viewBox="0 0 36 36" fill="none" xmlns="http://www.w3.org/2000/svg">
<path d="M2.67962 6.05722L8.02974 0.707107C8.42026 0.316583 9.05342 0.316582 9.44395 0.707106L15.8192 7.08237C16.2097 7.47289 16.2097 8.10606 15.8192 8.49658L11.6588 12.657C11.0768 13.239 10.9325 14.1282 11.3006 14.8644C13.4286 19.1204 16.8796 22.5714 21.1356 24.6994C21.8718 25.0675 22.761 24.9232 23.343 24.3412L27.5034 20.1808C27.8939 19.7903 28.5271 19.7903 28.9176 20.1808L35.2929 26.5561C35.6834 26.9466 35.6834 27.5797 35.2929 27.9703L29.9428 33.3204C27.8314 35.4317 24.4889 35.6693 22.1001 33.8777L13.3128 27.2872C11.5693 25.9796 10.0204 24.4307 8.71278 22.6872L2.12226 13.8999C0.330722 11.5111 0.568267 8.16858 2.67962 6.05722Z" fill="#47AB7A"/>
</svg>
