<svg width="26" height="26" viewBox="0 0 26 26" fill="none" xmlns="http://www.w3.org/2000/svg">
<g clip-path="url(#clip0_63_44)">
<path d="M23.3796 7.95125C23.3955 8.17332 23.3955 8.39543 23.3955 8.6175C23.3955 15.3909 18.2401 23.1955 8.81748 23.1955C5.91455 23.1955 3.21787 22.3548 0.949463 20.8954C1.36191 20.943 1.75845 20.9589 2.18677 20.9589C4.58203 20.9589 6.78701 20.1499 8.5478 18.7698C6.29526 18.7222 4.40757 17.2469 3.75718 15.2165C4.07446 15.264 4.3917 15.2958 4.72485 15.2958C5.18486 15.2958 5.64492 15.2323 6.07319 15.1213C3.72549 14.6454 1.96465 12.5832 1.96465 10.0927V10.0293C2.64673 10.41 3.43994 10.648 4.28062 10.6797C2.90054 9.75959 1.99639 8.18918 1.99639 6.41252C1.99639 5.46077 2.25015 4.58831 2.69434 3.82688C5.21655 6.93601 9.00781 8.96643 13.259 9.18855C13.1797 8.80784 13.1321 8.4113 13.1321 8.01472C13.1321 5.19109 15.4164 2.89099 18.2559 2.89099C19.7311 2.89099 21.0636 3.50964 21.9995 4.50901C23.1575 4.28694 24.2679 3.85862 25.2514 3.2717C24.8707 4.46145 24.0617 5.46082 22.9989 6.09529C24.03 5.9843 25.0293 5.69871 25.9494 5.30217C25.2515 6.31736 24.379 7.22151 23.3796 7.95125Z" fill="#0094E8"/>
</g>
<defs>
<clipPath id="clip0_63_44">
<rect width="25" height="25" fill="white" transform="translate(0.949463 0.543243)"/>
</clipPath>
</defs>
</svg>
